<?xml version="1.0" ?><!DOCTYPE svg  PUBLIC '-//W3C//DTD SVG 1.1//EN'  'http://www.w3.org/Graphics/SVG/1.1/DTD/svg11.dtd'><svg enable-background="new 0 0 800 800" height="800px" id="GUIDE" version="1.1" viewBox="0 0 800 800" width="800px" xml:space="preserve" xmlns="http://www.w3.org/2000/svg" xmlns:cc="http://creativecommons.org/ns#" xmlns:dc="http://purl.org/dc/elements/1.1/" xmlns:inkscape="http://www.inkscape.org/namespaces/inkscape" xmlns:rdf="http://www.w3.org/1999/02/22-rdf-syntax-ns#" xmlns:sodipodi="http://sodipodi.sourceforge.net/DTD/sodipodi-0.dtd" xmlns:svg="http://www.w3.org/2000/svg" xmlns:xlink="http://www.w3.org/1999/xlink"><g><path d="M137.576,168.042c11.046,0,20-8.954,20-20s-8.954-20-20-20h-6.644c-11.046,0-20,8.954-20,20s8.954,20,20,20H137.576z"/><path d="M180.664,224.598c-7.473-3.095-16.075-1.384-21.795,4.335l-42.078,42.077c-7.811,7.81-7.811,20.474,0,28.284   c7.81,7.811,20.473,7.811,28.283,0l7.937-7.936v73.056h-4.724c-11.046,0-20,8.954-20,20s8.954,20,20,20h49.448   c11.046,0,20-8.955,20-20s-8.954-20-20-20h-4.725v-121.34C193.011,234.986,188.138,227.694,180.664,224.598z"/><path d="M399.177,224.598c-7.473-3.096-16.075-1.385-21.796,4.335l-42.076,42.077c-7.811,7.811-7.811,20.474,0,28.284   s20.473,7.811,28.283,0l7.936-7.935v73.056H366.8c-11.046,0-20,8.954-20,20s8.954,20,20,20h49.447c11.046,0,20-8.955,20-20   s-8.954-20-20-20h-4.724v-121.34C411.523,234.986,406.65,227.694,399.177,224.598z"/><path d="M464.702,301.962h57.848c11.046,0,20-8.954,20-20s-8.954-20-20-20h-57.848c-11.046,0-20,8.954-20,20   S453.656,301.962,464.702,301.962z"/><path d="M464.702,365.528h57.848c11.046,0,20-8.954,20-20s-8.954-20-20-20h-57.848c-11.046,0-20,8.954-20,20   S453.656,365.528,464.702,365.528z"/><path d="M269.905,264.822c-11.046,0-20,8.954-20,20v8.924h-8.924c-11.046,0-20,8.954-20,20s8.954,20,20,20h8.924v8.924   c0,11.046,8.954,20,20,20s20-8.954,20-20v-8.924h8.924c11.046,0,20-8.954,20-20s-8.954-20-20-20h-8.924v-8.924   C289.905,273.776,280.951,264.822,269.905,264.822z"/><path d="M563.477,370.313c-5.72,5.72-7.431,14.322-4.335,21.795c3.096,7.474,10.388,12.347,18.478,12.347h91.447   c11.046,0,20-8.955,20-20s-8.954-20-20-20h-43.163l46.955-46.955c10.452-10.451,16.208-24.347,16.208-39.128   c0-14.78-5.755-28.676-16.207-39.128c-21.575-21.574-56.681-21.574-78.258,0.001c-11.806,11.808-17.609,28.114-15.922,44.739   c1.115,10.989,10.93,18.986,21.917,17.878c10.989-1.116,18.993-10.928,17.878-21.917c-0.469-4.618,1.141-9.144,4.412-12.416   c5.979-5.979,15.709-5.98,21.689,0c2.896,2.896,4.49,6.747,4.49,10.842c0,4.097-1.595,7.947-4.492,10.844L563.477,370.313z"/><path d="M729.938,128.041c-0.025,0-0.051,0-0.076,0c-6.39,0.002-526.181,0.002-531.451,0.002c-11.047,0-20,8.954-20,20   s8.953,20,20,20l511.527-0.001v358.955H70.063c-11.046,0-20,8.953-20,20c0,11.045,8.954,20,20,20H380v111.805l-133.389,59.504   c-10.088,4.5-14.617,16.326-10.117,26.412c3.318,7.441,10.623,11.857,18.275,11.857c2.723,0,5.49-0.559,8.137-1.74L400,713.678   l137.095,61.156c2.647,1.182,5.413,1.74,8.136,1.74c7.652,0,14.958-4.416,18.277-11.857c4.499-10.086-0.03-21.912-10.117-26.412   L420,678.801V566.996h309.938c11.046,0,20-8.955,20-20V148.041C749.938,136.995,740.983,128.041,729.938,128.041z"/><path d="M70.063,499.447h531.53c11.046,0,20-8.955,20-20c0-11.047-8.954-20-20-20H90.063V100.495h639.875c11.046,0,20-8.954,20-20   s-8.954-20-20-20H420V43.425c0-11.046-8.954-20-20-20s-20,8.954-20,20v17.069H70.063c-11.046,0-20,8.954-20,20v398.953   C50.063,490.492,59.017,499.447,70.063,499.447z"/><path d="M669.07,459.447h-6.641c-11.046,0-20,8.953-20,20c0,11.045,8.954,20,20,20h6.641c11.046,0,20-8.955,20-20   C689.07,468.4,680.116,459.447,669.07,459.447z"/></g></svg>